<svg width="24" height="24" viewBox="0 0 24 24" fill="none" xmlns="http://www.w3.org/2000/svg">
<mask id="mask0_1944_5036" style="mask-type:alpha" maskUnits="userSpaceOnUse" x="0" y="0" width="24" height="24">
<rect width="24" height="24" rx="12" fill="#D9D9D9"/>
</mask>
<g mask="url(#mask0_1944_5036)">
<path d="M33 -0.732727H-7V24.3771H33V-0.732727Z" fill="#DB2E2E"/>
<path d="M30.9771 16H-7V27.8057H30.9771V16Z" fill="#39B742"/>
<path d="M31 8.37714H-7V16.4H31V8.37714Z" fill="white"/>
<path d="M9.24914 7.87587L10.3305 10.1466L8.13539 8.89231L9.8655 10.7089L7.31358 10.1466L9.57354 11.4334L7 11.6172L9.57354 12.1687L7.11895 13.0878L9.67086 12.8932L7.72448 14.4935L10.0926 13.542L8.62198 15.683L10.6116 14.0502L9.8655 16.5372L11.282 14.4178V16.9698L12.0606 14.4935L12.7959 16.8941V14.4178L14.2557 16.5372L13.4987 14.1043L15.4884 15.683L13.9961 13.542L16.3858 14.4935L14.3746 12.8932L16.9373 13.0878L14.6017 12.1687L17.013 11.6172L14.4935 11.4334L16.6778 10.1466L14.2557 10.7089L15.9641 8.89231L13.715 10.1466L14.8612 7.87587L13.1743 9.67086L13.4987 7.21626L12.4066 9.47622L12.0606 7L11.6821 9.47622L10.5792 7.21626L10.9684 9.74655L9.24914 7.87587Z" fill="#FEBD12"/>
</g>
</svg>
