<svg width="409" height="180" viewBox="0 0 409 180" fill="none" xmlns="http://www.w3.org/2000/svg">
<path d="M389.404 24C374.994 24 389.404 41.3357 389.404 41.3357C389.404 41.3357 403.815 24 389.404 24ZM389.404 34.9554C386.728 34.9554 384.549 32.7768 384.549 30.1002C384.549 27.4236 386.728 25.2449 389.404 25.2449C392.081 25.2449 394.26 27.4236 394.26 30.1002C394.291 32.7768 392.112 34.9554 389.404 34.9554Z" fill="white"/>
<path d="M389.405 25.8986C387.071 25.8986 385.203 27.766 385.203 30.1002C385.203 32.4345 387.071 34.3019 389.405 34.3019C391.708 34.3019 393.606 32.4345 393.606 30.1002C393.606 27.766 391.739 25.8986 389.405 25.8986ZM389.405 33.6172C387.444 33.6172 385.888 32.0299 385.888 30.1002C385.888 28.1394 387.475 26.5833 389.405 26.5833C391.366 26.5833 392.922 28.1706 392.922 30.1002C392.953 32.0299 391.366 33.6172 389.405 33.6172Z" fill="white"/>
<path d="M391.054 44.6971C391.054 45.5997 390.338 46.3155 389.436 46.3155C388.533 46.3155 387.817 45.5997 387.817 44.6971C387.817 43.7946 388.533 43.0787 389.436 43.0787C390.307 43.0787 391.054 43.7946 391.054 44.6971Z" fill="white"/>
<path d="M30.5051 173.622C32.0032 173.201 33.1539 172.005 33.5406 170.506L37.4733 155.174C37.7514 154.094 38.5584 153.285 39.5986 152.96L45.3942 151.265C46.8324 150.861 48.1694 150.097 49.2808 149.105L50.0017 148.45C50.5682 147.935 50.2986 146.976 49.5467 146.832L48.5899 146.649C47.1246 146.382 45.5853 146.427 44.1472 146.831L38.3179 148.406C37.2693 148.701 36.1205 148.409 35.3499 147.624L24.0024 136.59C22.8911 135.512 21.2854 135.091 19.7873 135.512C24.5126 140.358 28.3026 147.052 29.7959 149.832C30.0037 150.227 29.7753 150.679 29.3858 150.788L28.7108 149.653C28.3924 149.096 27.6921 148.905 27.1182 149.163L25.5845 149.918C25.3832 150.007 25.2072 150.185 25.1079 150.407C25.0087 150.629 24.8327 150.808 24.6014 150.905L24.0274 151.164L24.7203 151.098C24.9385 151.069 25.1435 151.109 25.3354 151.216L25.6425 151.389L26.1415 151.668L24.9132 152.014C24.1342 152.233 23.3505 152.55 22.652 152.941L19.0567 154.986L16.3275 151.26C15.7452 150.454 14.6947 150.167 13.7696 150.557L12.382 151.141L16.3227 156.531L15.32 157.104C15.1486 157.185 15.2245 157.454 15.4126 157.434L16.5671 157.4L16.0136 164.054L17.5023 163.83C18.4648 163.688 19.212 162.896 19.3187 161.896L19.7354 157.285L23.8401 157.165C24.6696 157.126 25.4739 156.997 26.2529 156.778L27.4813 156.432L27.2013 156.931L27.029 157.238C26.9214 157.43 26.7669 157.571 26.5656 157.66L25.9401 157.965L26.5646 157.886C26.8127 157.849 27.0562 157.91 27.2565 158.047C27.4569 158.185 27.6919 158.216 27.9185 158.217L29.6207 158.061C30.2536 158.013 30.7433 157.455 30.7246 156.813L30.7087 155.492C31.1281 155.374 31.5373 155.68 31.5569 156.094C31.7572 159.336 32.0033 166.994 30.5051 173.622Z" fill="white"/>
<path d="M64.4539 144.774C64.424 144.782 64.424 144.782 64.394 144.79C63.3885 145.008 62.3445 145.205 61.3305 145.393C60.8128 145.507 60.3269 145.158 60.252 144.662C60.1387 144.144 60.487 143.658 60.9832 143.583C61.9972 143.395 63.0028 143.177 64.0083 142.959C64.5261 142.846 65.0036 143.164 65.1169 143.682C65.1918 144.178 64.9034 144.647 64.4539 144.774Z" fill="white"/>
<path d="M282.665 105.843C282.126 105.995 281.548 106.125 280.971 106.255C280.453 106.369 279.967 106.02 279.892 105.524C279.779 105.006 280.127 104.52 280.623 104.446C282.583 104.056 284.458 103.367 286.108 102.45C286.554 102.196 287.117 102.361 287.372 102.806C287.627 103.252 287.462 103.816 287.016 104.07C285.692 104.766 284.223 105.405 282.665 105.843ZM274.89 106.478C274.77 106.512 274.672 106.507 274.544 106.511C272.347 106.288 270.246 105.715 268.296 104.873C267.814 104.653 267.602 104.131 267.822 103.648C268.042 103.166 268.565 102.955 269.047 103.175C270.814 103.939 272.701 104.443 274.731 104.648C275.231 104.701 275.623 105.173 275.569 105.673C275.52 106.075 275.25 106.377 274.89 106.478ZM291.53 100.117C291.26 100.193 290.927 100.158 290.671 99.9384C290.284 99.5948 290.222 99.0302 290.527 98.6211C291.752 97.1128 292.759 95.4069 293.498 93.5503C293.688 93.0765 294.232 92.8266 294.706 93.0166C295.18 93.2067 295.43 93.7507 295.24 94.2244C294.423 96.2646 293.338 98.1539 291.989 99.7943C291.873 99.9563 291.71 100.067 291.53 100.117ZM263.847 101.469C263.518 101.561 263.167 101.466 262.942 101.238C261.588 99.8733 260.521 98.2657 259.768 96.5054C259.662 96.2442 259.556 95.983 259.45 95.7218C259.277 95.2209 259.519 94.7003 260.02 94.5271C260.491 94.3624 261.041 94.5955 261.214 95.0964C261.312 95.3276 261.379 95.5673 261.506 95.7902C262.163 97.3191 263.11 98.7339 264.294 99.9529C264.66 100.335 264.662 100.916 264.28 101.282C264.13 101.325 263.997 101.427 263.847 101.469ZM296.079 88.8156C295.959 88.8493 295.831 88.853 295.732 88.8483C295.232 88.795 294.841 88.3231 294.894 87.8231C295.125 85.8831 295.082 83.8907 294.834 81.859C294.759 81.3628 295.137 80.8684 295.642 80.8235C296.138 80.7486 296.632 81.1269 296.677 81.6315C296.959 83.7831 296.984 85.9421 296.757 88.0104C296.739 88.4036 296.438 88.7144 296.079 88.8156ZM154.3 121.09C153.821 121.225 153.292 120.953 153.157 120.474C153.014 119.965 153.294 119.466 153.765 119.301C155.614 118.749 157.549 118.043 159.536 117.29C159.999 117.095 160.549 117.328 160.752 117.821C160.947 118.283 160.714 118.834 160.221 119.037C158.205 119.798 156.201 120.491 154.3 121.09ZM148.296 122.617C148.266 122.626 148.266 122.626 148.236 122.634C146.127 123.066 144.013 123.369 142.025 123.54C141.52 123.585 141.056 123.198 141.011 122.694C140.966 122.189 141.353 121.725 141.857 121.68C143.816 121.517 145.831 121.209 147.85 120.803C148.368 120.689 148.854 121.038 148.959 121.525C149.064 122.013 148.775 122.482 148.296 122.617ZM82.4407 140.329C81.9613 140.464 81.4323 140.193 81.289 139.683C81.1458 139.174 81.4258 138.675 81.9351 138.532C83.9125 137.976 85.8731 137.359 87.8337 136.743C88.3131 136.609 88.8421 136.88 89.0068 137.351C89.1501 137.86 88.8701 138.359 88.3992 138.524C86.447 139.17 84.448 139.765 82.4407 140.329ZM76.5 141.968C76.47 141.976 76.47 141.976 76.5 141.968C74.4841 142.502 72.4599 143.007 70.4572 143.473C69.9394 143.586 69.4619 143.268 69.3271 142.789C69.2138 142.271 69.5322 141.793 70.0116 141.659C71.9843 141.201 74.0086 140.696 75.9944 140.17C76.5037 140.027 77.0112 140.337 77.1245 140.854C77.2593 141.334 76.9793 141.833 76.5 141.968ZM165.815 116.623C165.395 116.741 164.913 116.521 164.705 116.127C164.481 115.673 164.705 115.093 165.168 114.898C166.144 114.462 167.142 113.987 168.132 113.482C168.98 113.05 169.837 112.647 170.677 112.185C171.131 111.96 171.695 112.125 171.919 112.579C172.144 113.033 171.979 113.596 171.525 113.821C170.647 114.262 169.799 114.695 168.95 115.127C167.931 115.64 166.933 116.115 165.956 116.551C165.896 116.568 165.845 116.615 165.815 116.623ZM259.546 90.1987C259.456 90.224 259.366 90.2493 259.298 90.2361C258.776 90.2212 258.372 89.8176 258.387 89.2961C258.417 87.2185 258.747 85.0567 259.409 82.9304C259.561 82.4351 260.097 82.1551 260.592 82.3068C261.087 82.4585 261.367 82.994 261.216 83.4893C260.6 85.4405 260.28 87.4058 260.268 89.3167C260.228 89.7484 259.936 90.0892 259.546 90.1987ZM94.2641 136.616C93.7847 136.751 93.2941 136.501 93.1293 136.03C92.9561 135.529 93.2276 135 93.6986 134.835C95.6423 134.159 97.586 133.484 99.5213 132.778C100.022 132.604 100.543 132.846 100.716 133.347C100.889 133.848 100.648 134.368 100.147 134.542C98.2114 135.247 96.2462 135.962 94.294 136.608L94.2641 136.616ZM105.867 132.351C105.418 132.477 104.936 132.257 104.741 131.795C104.546 131.332 104.78 130.782 105.272 130.578C106.578 130.049 107.914 129.512 109.22 128.983C109.803 128.755 110.407 128.488 110.981 128.229C111.443 128.035 112.015 128.229 112.218 128.722C112.413 129.184 112.218 129.756 111.726 129.96C111.122 130.226 110.539 130.455 109.936 130.722C108.629 131.251 107.302 131.818 105.957 132.325C105.927 132.334 105.897 132.342 105.867 132.351ZM136.001 123.618C135.911 123.643 135.813 123.638 135.684 123.642C134.633 123.582 133.573 123.492 132.535 123.364C131.496 123.236 130.441 123.047 129.399 122.791C128.882 122.678 128.581 122.18 128.694 121.664C128.807 121.147 129.305 120.845 129.821 120.959C130.787 121.172 131.812 121.369 132.782 121.484C133.76 121.629 134.782 121.697 135.803 121.766C136.325 121.781 136.708 122.223 136.693 122.744C136.652 123.176 136.36 123.517 136.001 123.618ZM176.804 110.979C176.385 111.097 175.949 110.928 175.741 110.534C175.487 110.088 175.651 109.525 176.097 109.27C177.888 108.281 179.662 107.233 181.398 106.163C181.836 105.878 182.429 106.034 182.684 106.48C182.968 106.917 182.812 107.511 182.366 107.766C180.601 108.844 178.796 109.901 177.014 110.92C176.945 110.907 176.894 110.953 176.804 110.979ZM117.179 127.392C116.759 127.509 116.285 127.319 116.108 126.917C115.883 126.463 116.078 125.891 116.532 125.666C118.49 124.695 120.259 123.745 121.922 122.76C122.368 122.505 122.923 122.64 123.207 123.077C123.462 123.523 123.327 124.078 122.89 124.363C121.176 125.395 119.376 126.353 117.388 127.333C117.299 127.358 117.239 127.375 117.179 127.392ZM294.56 76.6336C294.111 76.76 293.59 76.5184 293.425 76.0475C292.728 74.1421 291.808 72.3642 290.733 70.7266C290.448 70.2893 290.545 69.7126 290.982 69.428C291.419 69.1433 291.996 69.2398 292.281 69.677C293.449 71.4176 294.411 73.3454 295.173 75.3622C295.346 75.8631 295.104 76.3837 294.603 76.5569C294.59 76.6252 294.59 76.6252 294.56 76.6336ZM187.361 104.486C186.971 104.595 186.574 104.448 186.315 104.101C186.03 103.664 186.127 103.087 186.564 102.802C188.283 101.672 189.955 100.491 191.619 99.2793C192.048 98.9647 192.624 99.0612 192.939 99.49C193.254 99.9188 193.157 100.496 192.728 100.81C191.065 102.022 189.332 103.22 187.613 104.35C187.532 104.405 187.45 104.461 187.361 104.486ZM127.769 121.018C127.409 121.12 127.021 121.003 126.77 120.685C126.464 120.286 126.552 119.68 126.951 119.373C128.636 118.124 130.168 116.787 131.533 115.434C131.885 115.076 132.496 115.066 132.854 115.418C133.212 115.77 133.222 116.381 132.87 116.739C131.462 118.169 129.849 119.561 128.082 120.866C128.009 120.951 127.889 120.985 127.769 121.018ZM124.012 120.879C123.802 120.938 123.605 120.929 123.384 120.829C121.433 119.988 119.531 118.971 117.783 117.813C117.344 117.517 117.243 116.93 117.519 116.53C117.816 116.091 118.372 115.999 118.802 116.266C120.465 117.35 122.231 118.341 124.096 119.109C124.57 119.299 124.79 119.852 124.6 120.326C124.487 120.616 124.281 120.803 124.012 120.879ZM197.382 97.2383C197.022 97.3394 196.634 97.2224 196.383 96.905C196.077 96.5062 196.135 95.9079 196.533 95.6017C197.147 95.1383 197.722 94.6533 198.335 94.1898C199.309 93.3987 200.282 92.6076 201.329 91.7312C201.72 91.3951 202.318 91.4532 202.654 91.8436C202.99 92.234 202.932 92.8323 202.542 93.1684C201.495 94.0448 200.5 94.8743 199.526 95.6654C198.921 96.1588 198.308 96.6223 197.733 97.1073C197.583 97.1494 197.472 97.213 197.382 97.2383ZM263.079 78.5037C262.839 78.5711 262.574 78.5487 262.335 78.3895C261.905 78.1226 261.775 77.5449 262.041 77.1142C262.704 76.0226 263.452 75.0039 264.247 74.0368C264.81 73.3935 265.373 72.7503 266.004 72.1202C266.356 71.7626 266.967 71.7523 267.325 72.1044C267.683 72.4564 267.693 73.0678 267.341 73.4254C266.761 74.0087 266.19 74.622 265.687 75.2483C264.936 76.1387 264.239 77.1105 263.641 78.0871C263.511 78.3174 263.289 78.4447 263.079 78.5037ZM372.609 46.4074C372.519 46.4327 372.421 46.428 372.292 46.4317C370.258 46.3249 368.193 46.2266 366.146 46.1881C365.624 46.1731 365.211 45.7397 365.235 45.2481C365.25 44.7266 365.683 44.3137 366.175 44.3371C368.223 44.3756 370.317 44.4655 372.39 44.5938C372.911 44.6088 373.294 45.0507 373.279 45.5722C373.291 45.957 372.998 46.2978 372.609 46.4074ZM136.433 112.278C136.163 112.353 135.89 112.301 135.651 112.142C135.212 111.845 135.111 111.259 135.417 110.85C136.126 109.81 136.789 108.718 137.384 107.613C137.72 106.969 138.018 106.303 138.277 105.616C138.467 105.142 139.011 104.892 139.485 105.082C139.959 105.272 140.209 105.816 140.019 106.29C139.708 107.024 139.397 107.758 139.009 108.449C138.402 109.622 137.687 110.761 136.934 111.878C136.835 112.1 136.642 112.219 136.433 112.278ZM206.846 89.2746C206.516 89.3672 206.136 89.2801 205.894 88.9927C205.557 88.6023 205.586 88.0124 205.976 87.6763C207.405 86.4339 208.825 85.1615 210.216 83.8975L210.576 83.5699C210.966 83.2338 211.556 83.2619 211.892 83.6523C212.228 84.0427 212.2 84.6326 211.81 84.9687L211.45 85.2964C210.029 86.5687 208.6 87.8112 207.18 89.0835C207.107 89.1687 206.966 89.2409 206.846 89.2746ZM360.246 46.1338C360.156 46.159 360.097 46.1759 359.998 46.1712C357.967 46.1927 355.885 46.261 353.833 46.3209C353.32 46.3359 352.885 45.9407 352.87 45.4276C352.855 44.9146 353.25 44.4801 353.764 44.4652C355.837 44.3669 357.928 44.3286 359.989 44.2986C360.502 44.2837 360.915 44.7172 360.93 45.2302C360.949 45.645 360.666 46.0158 360.246 46.1338ZM287.724 66.4646C287.424 66.5488 287.082 66.4833 286.827 66.2642C285.656 65.2034 284.403 64.1978 283.026 63.3242C282.854 63.4047 282.683 63.4853 282.482 63.5742C282.027 63.7989 281.455 63.6041 281.252 63.1116C281.066 62.6791 281.188 62.1922 281.573 61.9544C281.553 61.7662 281.601 61.5911 281.708 61.3992C281.975 60.9685 282.544 60.8085 282.975 61.0753C283.052 61.1184 283.09 61.1399 283.167 61.183C283.257 61.1577 283.338 61.1024 283.428 61.0771C284.747 60.4798 286.075 59.9125 287.403 59.3451C287.865 59.1504 288.416 59.3835 288.64 59.8376C288.835 60.3002 288.602 60.8507 288.148 61.0754C287.111 61.5285 286.067 61.9517 285.039 62.4348C286.126 63.196 287.14 64.0424 288.094 64.9057C288.481 65.2493 288.491 65.8607 288.139 66.2183C288.045 66.3419 287.903 66.414 287.724 66.4646ZM271.619 69.6682C271.259 69.7693 270.832 69.6308 270.611 69.3049C270.297 68.8761 270.393 68.2993 270.83 68.0147C272.443 66.85 274.17 65.75 276.163 64.6723C276.608 64.4177 277.172 64.5824 277.427 65.0281C277.681 65.4738 277.516 66.0375 277.071 66.2921C275.138 67.3529 273.462 68.4062 271.931 69.5156C271.828 69.6093 271.739 69.6345 271.619 69.6682ZM113.784 114.056C113.484 114.14 113.113 114.083 112.879 113.826C111.346 112.285 109.968 110.603 108.889 108.837C108.605 108.4 108.731 107.815 109.177 107.56C109.614 107.275 110.199 107.402 110.454 107.848C111.499 109.494 112.745 111.051 114.184 112.489C114.541 112.841 114.552 113.452 114.2 113.81C114.067 113.912 113.934 114.014 113.784 114.056ZM347.915 46.6597C347.855 46.6765 347.795 46.6934 347.726 46.6803C345.699 46.8301 343.621 47.0266 341.611 47.2363C341.106 47.2813 340.65 46.9245 340.567 46.3983C340.522 45.8937 340.878 45.4377 341.405 45.3544C343.445 45.1363 345.523 44.9397 347.58 44.7815C348.085 44.7366 348.549 45.1233 348.564 45.6364C348.609 46.141 348.334 46.5417 347.915 46.6597ZM335.605 47.9553C335.575 47.9637 335.515 47.9806 335.485 47.989C333.462 48.267 331.417 48.5834 329.419 48.9513C328.923 49.0262 328.446 48.7079 328.332 48.1902C328.257 47.6939 328.567 47.1864 329.093 47.1031C331.13 46.7567 333.205 46.4319 335.228 46.1539C335.724 46.079 336.21 46.4273 336.294 46.9535C336.33 47.4282 336.055 47.8289 335.605 47.9553ZM216.114 81.0748C215.785 81.1675 215.404 81.0804 215.162 80.793C214.826 80.4025 214.854 79.8127 215.244 79.4766C216.982 77.9533 218.522 76.6472 219.96 75.4347C220.35 75.0986 220.948 75.1567 221.284 75.5471C221.62 75.9375 221.562 76.5358 221.172 76.8719C219.756 78.046 218.225 79.382 216.478 80.8754C216.345 80.9774 216.234 81.0411 216.114 81.0748ZM293.775 58.7816C293.326 58.908 292.835 58.658 292.649 58.2254C292.454 57.7629 292.717 57.2039 293.18 57.0092C295.106 56.2733 297.072 55.559 299.015 54.883C299.516 54.7098 300.045 54.9814 300.21 55.4523C300.383 55.9532 300.112 56.4822 299.641 56.647C297.697 57.3229 295.762 58.0289 293.865 58.7563C293.835 58.7647 293.805 58.7732 293.775 58.7816ZM323.404 50.0935C323.374 50.1019 323.374 50.1019 323.344 50.1104C321.324 50.5167 319.322 50.9829 317.349 51.4407C316.831 51.554 316.353 51.2357 316.219 50.7563C316.105 50.2385 316.394 49.7694 316.903 49.6262C318.897 49.13 320.939 48.6853 322.958 48.279C323.476 48.1657 323.953 48.484 324.067 49.0018C324.171 49.4896 323.883 49.9587 323.404 50.0935ZM305.467 54.7174C304.988 54.8522 304.459 54.5807 304.324 54.1014C304.181 53.592 304.461 53.093 304.932 52.9282C306.892 52.3122 308.891 51.7177 310.907 51.1831C311.417 51.0399 311.924 51.3498 312.059 51.8292C312.202 52.3385 311.892 52.846 311.413 52.9808C309.405 53.5453 307.428 54.1014 305.467 54.7174ZM140.926 100.894C140.806 100.928 140.678 100.932 140.55 100.936C140.05 100.882 139.688 100.402 139.742 99.9019C139.994 97.9236 139.98 95.9227 139.749 93.9509C139.704 93.4463 140.061 92.9903 140.557 92.9154C141.062 92.8705 141.518 93.2272 141.593 93.7235C141.836 95.8535 141.823 97.991 141.575 100.098C141.556 100.491 141.286 100.793 140.926 100.894ZM277.208 60.1108C277.028 60.1614 276.831 60.152 276.618 60.0827C274.778 59.4038 272.814 58.857 270.823 58.4469C270.315 58.3636 269.975 57.8449 270.097 57.358C270.18 56.8496 270.669 56.5182 271.186 56.6315C273.274 57.0463 275.345 57.6278 277.292 58.3413C277.766 58.5313 278.016 59.0753 277.826 59.549C277.735 59.8009 277.477 60.035 277.208 60.1108ZM225.633 73.1925C225.274 73.2936 224.885 73.1765 224.634 72.8591C224.328 72.4603 224.386 71.862 224.815 71.5474L225.266 71.1944C226.809 70.0166 228.34 68.9071 229.828 67.8745C230.265 67.5898 230.842 67.6863 231.127 68.1236C231.411 68.5608 231.315 69.1376 230.878 69.4222C229.42 70.4464 227.881 71.5259 226.367 72.6953L225.916 73.0482C225.835 73.1035 225.753 73.1587 225.633 73.1925ZM107.333 103.649C106.854 103.784 106.325 103.512 106.19 103.033C106.131 102.823 106.072 102.614 106.022 102.434C105.769 101.535 105.567 100.589 105.435 99.6569C105.293 98.6944 105.203 97.6851 105.242 96.672C105.257 96.1505 105.66 95.746 106.182 95.761C106.703 95.776 107.108 96.1796 107.093 96.7011C107.089 97.6074 107.145 98.4969 107.27 99.3994C107.416 100.264 107.592 101.119 107.828 101.958C107.878 102.138 107.929 102.318 107.988 102.528C108.106 102.947 107.834 103.476 107.333 103.649ZM235.829 66.2192C235.439 66.3288 235.004 66.1602 234.774 65.8045C234.52 65.3588 234.655 64.8036 235.092 64.5189C236.948 63.4151 238.799 62.4096 240.593 61.5492C241.048 61.3245 241.62 61.5192 241.844 61.9733C242.069 62.4274 241.874 62.9995 241.42 63.2242C239.655 64.0762 237.834 65.0733 236.06 66.1219C235.97 66.1472 235.919 66.194 235.829 66.2192ZM265.123 57.7221C265.033 57.7474 264.943 57.7727 264.845 57.768C262.849 57.6828 260.797 57.7427 258.795 57.9823C258.29 58.0272 257.834 57.6705 257.751 57.1443C257.706 56.6397 258.063 56.1837 258.589 56.1004C260.689 55.8654 262.801 55.7887 264.896 55.8786C265.417 55.8936 265.8 56.3355 265.785 56.857C265.805 57.2718 265.513 57.6126 265.123 57.7221ZM246.954 60.8274C246.504 60.9538 245.984 60.7123 245.819 60.2413C245.646 59.7404 245.887 59.2198 246.358 59.0551C247.793 58.5223 249.244 58.0495 250.652 57.6535C251.221 57.4934 251.79 57.3333 252.338 57.2116C252.856 57.0983 253.355 57.3783 253.468 57.8961C253.582 58.4138 253.293 58.8829 252.784 59.0261C252.236 59.1478 251.697 59.2995 251.128 59.4596C249.749 59.8472 248.358 60.3031 246.984 60.819C247.014 60.8106 246.984 60.819 246.954 60.8274ZM139.506 88.7171C139.056 88.8435 138.566 88.5935 138.38 88.1609C137.644 86.2341 136.68 84.5328 135.489 83.0572C135.153 82.6668 135.241 82.0601 135.64 81.7539C136.031 81.4178 136.637 81.5059 136.943 81.9047C138.236 83.5133 139.319 85.4074 140.135 87.5056C140.33 87.9681 140.067 88.5271 139.604 88.7218C139.566 88.7003 139.536 88.7087 139.506 88.7171ZM107.439 91.4954C107.259 91.5459 107.063 91.5366 106.888 91.4888C106.393 91.3371 106.143 90.7932 106.294 90.2979C106.991 88.2914 107.969 86.3674 109.208 84.5642C109.505 84.125 110.091 84.0249 110.5 84.3301C110.909 84.6354 111.039 85.213 110.734 85.6222C109.582 87.2719 108.689 89.0424 108.04 90.8737C107.966 91.1855 107.739 91.4111 107.439 91.4954ZM131.772 79.3823C131.533 79.4497 131.298 79.4188 131.067 79.2896C130.184 78.7943 129.237 78.4141 128.246 78.1108C127.363 77.842 126.474 77.6716 125.551 77.6079C125.021 77.563 124.638 77.121 124.691 76.6211C124.736 76.0911 125.178 75.7082 125.678 75.7616C126.7 75.83 127.755 76.0182 128.745 76.3215C129.843 76.6596 130.935 77.0959 131.933 77.6558C132.394 77.9142 132.554 78.4835 132.287 78.9142C132.227 79.1576 132.012 79.3149 131.772 79.3823ZM114.449 81.4736C114.09 81.5747 113.701 81.4577 113.459 81.1702C113.153 80.7714 113.211 80.1731 113.61 79.8669C115.381 78.4635 117.275 77.3812 119.24 76.6668C119.711 76.5021 120.262 76.7352 120.435 77.2361C120.608 77.737 120.367 78.2576 119.866 78.4308C118.102 79.0562 116.371 80.028 114.792 81.3126C114.689 81.4062 114.569 81.4399 114.449 81.4736Z" fill="white"/>
<path d="M381.973 47.1688C381.853 47.2025 381.755 47.1978 381.626 47.2016C380.596 47.1032 379.567 47.0049 378.537 46.9066C378.037 46.8532 377.654 46.4113 377.699 45.8813C377.752 45.3814 378.194 44.9985 378.724 45.0434C379.754 45.1417 380.814 45.2316 381.844 45.33C382.343 45.3833 382.735 45.8552 382.682 46.3552C382.603 46.7653 382.332 47.0677 381.973 47.1688Z" fill="white"/>
</svg>
