<svg width="1280" height="56" viewBox="0 0 1280 56" fill="none" xmlns="http://www.w3.org/2000/svg">
<path d="M587.276 46.8944C588.692 46.9105 590.003 46.1636 590.753 44.9251L598.215 32.4011C598.743 31.5353 599.657 30.9921 600.677 30.994L606.184 30.9912C607.547 30.9849 608.92 30.6702 610.163 30.0813L610.984 29.685C611.643 29.3754 611.632 28.4655 611.002 28.132L610.216 27.7311C608.997 27.113 607.665 26.7583 606.276 26.7533L600.762 26.6283C599.753 26.6001 598.844 26.0528 598.352 25.1851L591.338 12.519C590.634 11.2794 589.356 10.511 587.94 10.4948C590.798 16.0019 592.352 22.8838 592.924 25.7217C593.008 26.1013 592.696 26.4666 592.289 26.4786L592.022 25.3022C591.89 24.746 591.347 24.3559 590.741 24.4699L589.201 24.7435C588.999 24.7814 588.8 24.8833 588.642 25.034C588.485 25.1847 588.275 25.313 588.073 25.351L587.516 25.4234L588.147 25.5388C588.341 25.5911 588.524 25.6697 588.646 25.8161L588.888 26.0451L589.252 26.4204L588.09 26.3887C587.351 26.3826 586.577 26.4555 585.847 26.6411L582.159 27.5203L580.759 23.5146C580.446 22.6616 579.627 22.1217 578.715 22.2287L577.346 22.3892L579.377 28.1647L578.344 28.4073C578.169 28.4565 578.167 28.6746 578.335 28.7157L579.358 28.9995L577.103 34.7417L578.477 34.9272C579.35 35.0534 580.216 34.5517 580.553 33.6975L582.137 29.7276L585.745 30.6872C586.469 30.8739 587.227 30.9815 587.967 30.9876L589.14 30.9929L588.765 31.3621L588.536 31.607C588.389 31.7313 588.217 31.8445 588.015 31.8824L587.383 31.9851L587.935 32.0668C588.167 32.104 588.364 32.2202 588.513 32.3779C588.662 32.5355 588.833 32.6405 589.053 32.704L590.598 32.9944C591.166 33.1137 591.72 32.7592 591.906 32.1835L592.226 31.0097C592.622 31.024 592.908 31.3657 592.827 31.7682C592.137 34.5933 590.337 41.4364 587.276 46.8944Z" fill="black"/>
<path d="M613 28.5853H638.336L645.95 12.647L654.993 37.8629L659.514 28.5853H676.41L680.931 1.22852L689.498 55.2285L695.685 28.5853H1279.5" stroke="black" stroke-linejoin="round" stroke-dasharray="4 4"/>
<path d="M574.5 28.2285H0" stroke="black" stroke-linecap="round" stroke-linejoin="round" stroke-dasharray="4 4"/>
</svg>
