<svg width="138" height="7" viewBox="0 0 138 7" fill="none" xmlns="http://www.w3.org/2000/svg">
<path d="M130.68 0.505096C128.674 0.505096 127.696 2.01493 126.833 3.34717C126.018 4.60586 125.248 5.79452 123.826 5.79452C122.405 5.79452 121.635 4.60586 120.82 3.34717C119.957 2.01493 118.979 0.505096 116.973 0.505096C114.967 0.505096 113.989 2.01493 113.126 3.34717C112.31 4.60586 111.54 5.79452 110.119 5.79452C108.698 5.79452 107.928 4.60586 107.113 3.34717C106.25 2.01493 105.271 0.505096 103.265 0.505096C101.259 0.505096 100.282 2.01493 99.4184 3.34717C98.6029 4.60586 97.8328 5.79452 96.4121 5.79452C94.9914 5.79452 94.2213 4.60586 93.4058 3.34717C92.543 2.01493 91.5647 0.505096 89.5587 0.505096C87.5528 0.505096 86.5745 2.01493 85.7116 3.34717C84.8962 4.60586 84.1261 5.79452 82.7054 5.79452C81.2847 5.79452 80.5139 4.60586 79.6991 3.34717C78.8363 2.01493 77.858 0.505096 75.852 0.505096C73.8461 0.505096 72.8678 2.01493 72.0049 3.34717C71.1895 4.60586 70.4194 5.79452 68.9987 5.79452C67.5779 5.79452 66.8072 4.60586 65.9924 3.34717C65.1296 2.01493 64.1513 0.505096 62.1453 0.505096C60.1394 0.505096 59.1617 2.01493 58.2982 3.34717C57.4828 4.60586 56.7127 5.79452 55.292 5.79452C53.8712 5.79452 53.1012 4.60586 52.2857 3.34717C51.4229 2.01493 50.4446 0.505096 48.4386 0.505096C46.4326 0.505096 45.455 2.01493 44.5922 3.34717C43.7767 4.60586 43.0066 5.79452 41.5859 5.79452C40.1652 5.79452 39.3951 4.60586 38.5797 3.34717C37.7168 2.01493 36.7385 0.505096 34.7326 0.505096C32.7266 0.505096 31.7483 2.01493 30.8855 3.34717C30.07 4.60586 29.2999 5.79452 27.8792 5.79452C26.4585 5.79452 25.6884 4.60586 24.8729 3.34717C24.0101 2.01493 23.0318 0.505096 21.0259 0.505096C19.0199 0.505096 18.0423 2.01493 17.1794 3.34717C16.364 4.60586 15.5939 5.79452 14.1732 5.79452C12.7524 5.79452 11.9824 4.60586 11.1669 3.34717C10.3041 2.01493 9.32577 0.505096 7.31981 0.505096C5.31385 0.505096 4.33623 2.01493 3.47339 3.34717C2.65793 4.60586 1.88784 5.79452 0.467123 5.79452C0.208871 5.79452 0 5.9511 0 6.14471C0 6.33832 0.208871 6.4949 0.467123 6.4949C2.47308 6.4949 3.4507 4.98507 4.31354 3.65283C5.129 2.39414 5.89909 1.20548 7.31981 1.20548C8.74053 1.20548 9.51061 2.39414 10.3261 3.65283C11.1889 4.98507 12.1672 6.4949 14.1732 6.4949C16.1791 6.4949 17.1567 4.98507 18.0196 3.65283C18.835 2.39414 19.6051 1.20548 21.0259 1.20548C22.4466 1.20548 23.2167 2.39414 24.0321 3.65283C24.895 4.98507 25.8732 6.4949 27.8785 6.4949C29.8845 6.4949 30.8628 4.98507 31.7256 3.65283C32.5411 2.39414 33.3112 1.20548 34.7319 1.20548C36.1526 1.20548 36.9227 2.39414 37.7382 3.65283C38.601 4.98507 39.5793 6.4949 41.5852 6.4949C43.5912 6.4949 44.5688 4.98507 45.4323 3.65283C46.2478 2.39414 47.0179 1.20548 48.4386 1.20548C49.8593 1.20548 50.6294 2.39414 51.4449 3.65283C52.3077 4.98507 53.286 6.4949 55.292 6.4949C57.2979 6.4949 58.2755 4.98507 59.139 3.65283C59.9545 2.39414 60.7246 1.20548 62.1453 1.20548C63.566 1.20548 64.3361 2.39414 65.1516 3.65283C66.0144 4.98507 66.9927 6.4949 68.9987 6.4949C71.0046 6.4949 71.9829 4.98507 72.8458 3.65283C73.6612 2.39414 74.4313 1.20548 75.852 1.20548C77.2727 1.20548 78.0428 2.39414 78.8583 3.65283C79.7211 4.98507 80.6994 6.4949 82.7054 6.4949C84.7113 6.4949 85.689 4.98507 86.5525 3.65283C87.3679 2.39414 88.138 1.20548 89.5587 1.20548C90.9794 1.20548 91.7495 2.39414 92.565 3.65283C93.4278 4.98507 94.4061 6.4949 96.4121 6.4949C98.418 6.4949 99.3957 4.98507 100.259 3.65283C101.075 2.39414 101.845 1.20548 103.265 1.20548C104.686 1.20548 105.456 2.39414 106.272 3.65283C107.135 4.98507 108.113 6.4949 110.119 6.4949C112.125 6.4949 113.103 4.98507 113.966 3.65283C114.781 2.39414 115.551 1.20548 116.973 1.20548C118.394 1.20548 119.164 2.39414 119.979 3.65283C120.842 4.98507 121.82 6.4949 123.826 6.4949C125.832 6.4949 126.81 4.98507 127.673 3.65283C128.489 2.39414 129.259 1.20548 130.68 1.20548C132.1 1.20548 132.87 2.39414 133.686 3.65283C134.549 4.98507 135.527 6.4949 137.533 6.4949C137.791 6.4949 138 6.33832 138 6.14471C138 5.9511 137.791 5.79452 137.533 5.79452C136.112 5.79452 135.342 4.60586 134.527 3.34717C133.664 2.01493 132.686 0.505096 130.68 0.505096Z" fill="#CCCCCC"/>
</svg>
